<svg xmlns="http://www.w3.org/2000/svg" width="12" height="14" viewBox="0 0 12 14"><path d="M6 .953a.6.6 0 0 0-.232.048 1 1 0 0 0-.233.15L.928 4.891q-.185.157-.185.45 0 .179.082.322a.6.6 0 0 0 .219.219.64.64 0 0 0 .321.082.6.6 0 0 0 .226-.041 1 1 0 0 0 .232-.137L6 2.382l4.177 3.404q.115.096.225.137a.7.7 0 0 0 .226.04q.184 0 .321-.081a.6.6 0 0 0 .226-.219.64.64 0 0 0 .082-.321q0-.295-.185-.451L6.465 1.145A1 1 0 0 0 6.225 1 .6.6 0 0 0 6 .953m0 12.1a.6.6 0 0 0 .226-.048 1 1 0 0 0 .239-.144l4.607-3.746a.57.57 0 0 0 .185-.45.64.64 0 0 0-.082-.322.612.612 0 0 0-.772-.26.8.8 0 0 0-.226.137L6 11.624 1.823 8.22a1 1 0 0 0-.232-.137.6.6 0 0 0-.226-.048.64.64 0 0 0-.321.082.636.636 0 0 0-.3.547q-.001.287.184.451l4.607 3.74q.123.102.233.15a.6.6 0 0 0 .232.048"></path></svg>